<svg id="Capa_1" data-name="Capa 1" xmlns="http://www.w3.org/2000/svg" viewBox="0 0 283.46 283.46"><title>logo_strom mda</title><path d="M168.36,242.83,164,227.54h-.13c.21,2.6.31,4.63.31,6.07v9.22H159.1V221.6h7.65l4.42,15.07h.12l4.34-15.07h7.66v21.23H178v-9.31c0-.48,0-1,0-1.61s.08-2,.19-4.34h-.13l-4.28,15.26Z"/><path d="M204.52,231.76c0,3.55-1,6.28-2.93,8.2s-4.69,2.87-8.22,2.87H186.5V221.6h7.35c3.4,0,6,.87,7.89,2.61S204.52,228.47,204.52,231.76Zm-6,.21a6.75,6.75,0,0,0-1.16-4.33,4.27,4.27,0,0,0-3.51-1.41h-1.67v11.9h1.28a4.66,4.66,0,0,0,3.84-1.52A7.35,7.35,0,0,0,198.57,232Z"/><path d="M220,242.83l-1.05-4H212l-1.07,4h-6.31l6.93-21.32h7.66l7,21.32Zm-2.24-8.68-.92-3.49c-.21-.77-.47-1.78-.77-3s-.51-2.11-.6-2.64c-.09.49-.26,1.31-.52,2.44s-.83,3.37-1.71,6.7Z"/><path d="M56.86,237.51a12,12,0,0,0,5.24,1.38c2.26,0,3.27-.87,3.27-2.12s-.84-2-3.35-2.78c-4-1.3-5.67-3.33-5.62-5.57,0-3.37,3-6,7.71-6a12.78,12.78,0,0,1,5.41,1.13l-1,3.41a9.72,9.72,0,0,0-4.32-1.09c-1.85,0-2.86.82-2.86,2s1,1.8,3.57,2.66c3.69,1.25,5.41,3,5.45,5.84,0,3.45-2.89,6-8.3,6A13.85,13.85,0,0,1,55.85,241Z"/><path d="M78.54,217.41v5.45h4.9v3.6h-4.9v8.43c0,2.31.67,3.53,2.64,3.53a7.94,7.94,0,0,0,2-.24l.09,3.68a12,12,0,0,1-3.74.47,6.19,6.19,0,0,1-4.44-1.56c-1.09-1.1-1.59-2.82-1.59-5.33v-9H70.57v-3.6h2.94v-4.31Z"/><path d="M85.37,229c0-2.59,0-4.43-.16-6.15h4.48l.17,3.64H90a6,6,0,0,1,5.57-4.07,5.67,5.67,0,0,1,1.22.12v4.54a7.5,7.5,0,0,0-1.51-.16,4.47,4.47,0,0,0-4.61,3.65,8,8,0,0,0-.17,1.49v9.87H85.37Z"/><path d="M117.37,232.22c0,7-5.28,10.15-10.48,10.15-5.79,0-10.23-3.72-10.23-9.83,0-6.27,4.4-10.11,10.56-10.11S117.37,226.42,117.37,232.22Zm-15.39.2c0,3.68,1.93,6.47,5.07,6.47,2.94,0,5-2.71,5-6.55,0-3-1.42-6.38-4.94-6.38S102,229.25,102,232.42Z"/><path d="M119.64,228.54c0-2.19,0-4-.17-5.68h4.44l.21,2.82h.13a7.15,7.15,0,0,1,6.29-3.25A5.9,5.9,0,0,1,136.2,226h.08a7.54,7.54,0,0,1,2.52-2.4,7.19,7.19,0,0,1,4.11-1.13c3.39,0,6.83,2.15,6.83,8.27v11.24h-5V231.4c0-3.17-1.17-5.05-3.65-5.05a3.89,3.89,0,0,0-3.6,2.54,6.31,6.31,0,0,0-.26,1.61v11.44h-5V230.89c0-2.66-1.13-4.54-3.52-4.54a4,4,0,0,0-3.69,2.74,3.88,3.88,0,0,0-.29,1.57v11.28h-5Z"/><path d="M217.9,94a2,2,0,0,1-.24,0c-3.08-1-4.15,1.12-4.44,1.9V190H191.67V73.32L139.54,32.08c-4.66-1.49-6,2.12-6.29,2.9l0,5.63V190H107.05V68.25a1.13,1.13,0,0,1-.12-.18c-2-3.82-4.93-3.08-6.12-2.58L53.74,103.24V207H70.87s-.1-13.58-.1-95.48L90,96.39V207h60.41V62.42L173.57,80V207h56.15V103.24Z"/></svg>